<?xml version="1.0" encoding="UTF-8"?>
<svg version="1.1" xmlns="http://www.w3.org/2000/svg" width="512" height="149">
<path d="M0 0 C9.79833402 4.31212086 15.62722421 16.20892451 19.48046875 25.61328125 C26.5150406 45.47924222 27.12760724 66.34585391 18.34375 85.81640625 C9.61808486 103.84406845 -4.85706094 118.30506254 -24 125 C-44.05038983 131.78043317 -65.33937655 131.02097523 -84.4375 121.6875 C-92.2517703 117.52642334 -98.59376401 113.04012064 -104 106 C-102.22109375 106.05220703 -102.22109375 106.05220703 -100.40625 106.10546875 C-77.60420041 106.57226744 -57.40906392 102.07670244 -40.3125 85.875 C-22.044927 67.06855113 -15.00733041 37.64031382 -5.86303711 13.58642578 C-5.54742325 12.75878723 -5.23180939 11.93114868 -4.90663147 11.07843018 C-4.30862185 9.50974882 -3.71277716 7.94024 -3.11936951 6.36981201 C-1.11235648 1.11235648 -1.11235648 1.11235648 0 0 Z " fill="#013C6A" transform="translate(120,20)"/>
<path d="M0 0 C0.92683594 0.00451172 1.85367188 0.00902344 2.80859375 0.01367188 C5.08079709 0.02538426 7.35286388 0.04178628 9.625 0.0625 C9.02378853 3.41013225 8.20132511 6.46831126 6.98608398 9.64306641 C6.65160751 10.52233795 6.31713104 11.4016095 5.97251892 12.30752563 C5.60904861 13.2501828 5.24557831 14.19283997 4.87109375 15.1640625 C4.49195328 16.15514008 4.11281281 17.14621765 3.72218323 18.16732788 C2.91624871 20.27114718 2.10833112 22.37420771 1.29858398 24.4765625 C0.0863292 27.62559963 -1.1184818 30.77740404 -2.32226562 33.9296875 C-6.02078647 43.58613779 -9.77568977 53.21938987 -13.72265625 62.77734375 C-14.19162071 63.93364792 -14.19162071 63.93364792 -14.6700592 65.11331177 C-17.97531226 73.00134342 -22.33329983 77.89069241 -30.125 81.5625 C-38.55299017 84.45800583 -47.0263625 84.09885285 -55.12109375 80.3828125 C-60.99108912 76.94423636 -65.22663772 72.1167914 -67.7109375 65.765625 C-70.3485317 55.02906509 -68.58058979 44.68722358 -63.375 35.0625 C-60.92289492 31.5130172 -58.23206242 28.28876531 -55.375 25.0625 C-54.72144531 24.22332031 -54.06789063 23.38414063 -53.39453125 22.51953125 C-40.75231914 7.13858073 -19.2651477 -0.17863546 0 0 Z " fill="#013C6A" transform="translate(68.375,-0.0625)"/>
<path d="M0 0 C1.1859375 0.00257812 2.371875 0.00515625 3.59375 0.0078125 C4.7796875 0.00523438 5.965625 0.00265625 7.1875 0 C10.09375 0.1328125 10.09375 0.1328125 11.09375 1.1328125 C11.18123207 3.05948757 11.20072334 4.98933111 11.19140625 6.91796875 C11.18818359 8.08779297 11.18496094 9.25761719 11.18164062 10.46289062 C11.17326172 11.69458984 11.16488281 12.92628906 11.15625 14.1953125 C11.15173828 15.43087891 11.14722656 16.66644531 11.14257812 17.93945312 C11.13074618 21.00392663 11.11281008 24.06837543 11.09375 27.1328125 C18.35375 27.1328125 25.61375 27.1328125 33.09375 27.1328125 C33.07054687 25.35132812 33.04734375 23.56984375 33.0234375 21.734375 C33.00468333 19.40885834 32.98648276 17.08333717 32.96875 14.7578125 C32.95199219 13.5821875 32.93523437 12.4065625 32.91796875 11.1953125 C32.90830078 9.51308594 32.90830078 9.51308594 32.8984375 7.796875 C32.88272705 6.24154053 32.88272705 6.24154053 32.86669922 4.65478516 C33.09375 2.1328125 33.09375 2.1328125 35.09375 0.1328125 C37.87890625 -0.09765625 37.87890625 -0.09765625 41.15625 -0.0546875 C42.78240234 -0.04501953 42.78240234 -0.04501953 44.44140625 -0.03515625 C47.09375 0.1328125 47.09375 0.1328125 48.09375 1.1328125 C48.1879674 3.24962567 48.21117761 5.36962008 48.20727539 7.48852539 C48.20742142 8.15191422 48.20756744 8.81530304 48.2077179 9.49879456 C48.20701881 11.70105206 48.19922665 13.90322595 48.19140625 16.10546875 C48.18954206 17.62861586 48.18811816 19.15176357 48.18711853 20.6749115 C48.18329346 24.69118901 48.17346328 28.70743058 48.16241455 32.72369385 C48.15220019 36.81904616 48.14762086 40.91440426 48.14257812 45.00976562 C48.131841 53.05079778 48.11476472 61.09180067 48.09375 69.1328125 C45.63005468 70.36466016 43.9042999 70.30013592 41.15625 70.3203125 C40.28097656 70.33449219 39.40570313 70.34867187 38.50390625 70.36328125 C36.09375 70.1328125 36.09375 70.1328125 33.09375 68.1328125 C32.75317383 65.51904297 32.75317383 65.51904297 32.80078125 62.25 C32.8152832 60.50009766 32.8152832 60.50009766 32.83007812 58.71484375 C32.85521484 57.49152344 32.88035156 56.26820312 32.90625 55.0078125 C32.92655273 53.16123047 32.92655273 53.16123047 32.94726562 51.27734375 C32.9827117 48.22898168 33.03651993 45.18084341 33.09375 42.1328125 C25.83375 42.1328125 18.57375 42.1328125 11.09375 42.1328125 C11.12855469 43.98648438 11.16335938 45.84015625 11.19921875 47.75 C11.2273497 50.16926181 11.2546506 52.58853337 11.28125 55.0078125 C11.30638672 56.23113281 11.33152344 57.45445313 11.35742188 58.71484375 C11.36708984 59.88144531 11.37675781 61.04804687 11.38671875 62.25 C11.41028442 63.86817627 11.41028442 63.86817627 11.43432617 65.51904297 C11.32193604 66.38158691 11.2095459 67.24413086 11.09375 68.1328125 C7.82247414 70.31366307 6.81998277 70.38169109 3.03125 70.3203125 C2.15339844 70.31386719 1.27554687 70.30742188 0.37109375 70.30078125 C-1.90625 70.1328125 -1.90625 70.1328125 -3.90625 69.1328125 C-3.92937589 60.2839886 -3.94716634 51.43517503 -3.95806217 42.58632755 C-3.96329046 38.47786965 -3.97038713 34.36943236 -3.98168945 30.26098633 C-3.99252025 26.29934422 -3.99852724 22.33772198 -4.00112724 18.37606621 C-4.00298114 16.86132939 -4.0066011 15.34659371 -4.01198006 13.83186531 C-4.01919307 11.71739437 -4.02024083 9.60300656 -4.01977539 7.48852539 C-4.021996 6.28273331 -4.02421661 5.07694122 -4.02650452 3.83460999 C-3.85945251 0.08139805 -3.77883591 0.17268874 0 0 Z " fill="#013C6A" transform="translate(463.90625,25.8671875)"/>
<path d="M0 0 C2.12472576 -0.05386629 4.24983652 -0.09273071 6.375 -0.125 C7.55835938 -0.14820312 8.74171875 -0.17140625 9.9609375 -0.1953125 C13 0 13 0 15 2 C15.2515564 3.99116516 15.2515564 3.99116516 15.25537109 6.4621582 C15.26233002 7.38684402 15.26928894 8.31152985 15.27645874 9.26423645 C15.27546173 10.26629623 15.27446472 11.26835602 15.2734375 12.30078125 C15.29373032 14.41341672 15.31458117 16.52604689 15.3359375 18.63867188 C15.35853206 21.97652649 15.37500293 25.31417206 15.38085938 28.65209961 C15.39038091 31.86871365 15.42416139 35.08437949 15.4609375 38.30078125 C15.45589203 39.29676834 15.45084656 40.29275543 15.44564819 41.31892395 C15.50822108 45.72598858 15.5620908 48.28734731 17.90869141 52.10620117 C21.15710339 55.0478229 23.5609102 55.3913752 27.9609375 55.359375 C31.38006698 54.7567698 32.93189052 52.63213933 35 50 C36.17367244 47.65265512 36.1488033 46.19956643 36.18945312 43.58203125 C36.21452942 42.21050903 36.21452942 42.21050903 36.2401123 40.8112793 C36.25368774 39.82168213 36.26726318 38.83208496 36.28125 37.8125 C36.29965942 36.79905518 36.31806885 35.78561035 36.33703613 34.74145508 C36.39590826 31.49436352 36.44867763 28.24721915 36.5 25 C36.56750244 20.72905119 36.64117051 16.45827631 36.71875 12.1875 C36.73232544 11.19790283 36.74590088 10.20830566 36.7598877 9.1887207 C36.78496399 7.81719849 36.78496399 7.81719849 36.81054688 6.41796875 C36.82933899 5.20790161 36.82933899 5.20790161 36.84851074 3.97338867 C37 2 37 2 38 0 C40.12472576 -0.05386629 42.24983652 -0.09273071 44.375 -0.125 C45.55835938 -0.14820312 46.74171875 -0.17140625 47.9609375 -0.1953125 C51 0 51 0 53 2 C53.25396729 3.80566406 53.25396729 3.80566406 53.25878906 6.015625 C53.26509338 6.84408936 53.27139771 7.67255371 53.27789307 8.52612305 C53.2738446 9.42500244 53.26979614 10.32388184 53.265625 11.25 C53.26849518 12.64182495 53.26849518 12.64182495 53.27142334 14.06176758 C53.27278678 16.03222931 53.2690793 18.00269997 53.26074219 19.97314453 C53.25014135 22.96017255 53.26058165 25.94658574 53.2734375 28.93359375 C53.27211404 30.85156381 53.26954781 32.76953349 53.265625 34.6875 C53.26967346 35.57018555 53.27372192 36.45287109 53.27789307 37.36230469 C53.20333708 47.45809054 51.90009764 56.27555441 45 64 C38.46602581 69.53497813 31.41752732 71.29799132 23 70.875 C15.75679193 70.07222631 10.65564587 68.09293989 5.6875 62.6875 C-0.75112403 54.49924988 -1.15461933 45.82650828 -1.1328125 35.859375 C-1.13376923 34.89598206 -1.13472595 33.93258911 -1.13571167 32.94000244 C-1.13638986 30.91280044 -1.13456085 28.88559622 -1.13037109 26.85839844 C-1.12499429 23.74669575 -1.13034031 20.63513586 -1.13671875 17.5234375 C-1.13605836 15.55208301 -1.13477802 13.58072862 -1.1328125 11.609375 C-1.13483673 10.67607361 -1.13686096 9.74277222 -1.13894653 8.78118896 C-1.13579437 7.91979309 -1.13264221 7.05839722 -1.12939453 6.17089844 C-1.12859894 5.41178162 -1.12780334 4.65266479 -1.12698364 3.87054443 C-1 2 -1 2 0 0 Z " fill="#013C6A" transform="translate(240,26)"/>
<path d="M0 0 C5.95109289 3.54469459 9.87692326 8.33739927 12.3125 14.875 C12.54285666 17.92472193 12.45189445 20.80832212 12.3125 23.875 C7.6925 23.875 3.0725 23.875 -1.6875 23.875 C-2.265 22.616875 -2.8425 21.35875 -3.4375 20.0625 C-5.67019535 15.62476372 -5.67019535 15.62476372 -9.6875 12.875 C-13.46966379 12.46240031 -15.93445586 12.54982185 -19.4375 14.0625 C-23.51335969 17.34583141 -24.90253921 20.81872106 -25.6875 25.875 C-26.13440361 35.15604479 -25.63268602 43.03944195 -22.6875 51.875 C-18.40316371 54.41882467 -13.52853429 54.59252666 -8.6875 53.875 C-4.63520991 51.20901968 -3.37492833 47.26231366 -1.6875 42.875 C0.62493792 42.84814588 2.9374627 42.82867159 5.25 42.8125 C6.53777344 42.80089844 7.82554687 42.78929687 9.15234375 42.77734375 C12.3125 42.875 12.3125 42.875 13.3125 43.875 C12.90326966 51.65037637 10.86752907 57.84738927 5 63.1875 C-1.76282036 68.90232883 -9.21158948 69.57738392 -17.73046875 69.28515625 C-24.97768503 68.53396404 -30.18772939 65.82168098 -35.125 60.5 C-41.44882961 52.26473037 -41.86795445 43.51786846 -41.875 33.5625 C-41.88724609 32.66337891 -41.89949219 31.76425781 -41.91210938 30.83789062 C-41.93381864 20.8299181 -40.50494728 12.54103249 -33.6875 4.875 C-24.27004686 -2.79074257 -11.32396753 -5.33697563 0 0 Z " fill="#013C6A" transform="translate(434.6875,27.125)"/>
<path d="M0 0 C1.1859375 0.00257812 2.371875 0.00515625 3.59375 0.0078125 C4.7796875 0.00523438 5.965625 0.00265625 7.1875 0 C10.09375 0.1328125 10.09375 0.1328125 11.09375 1.1328125 C11.20796298 2.71116602 11.2533356 4.2945685 11.27075195 5.87695312 C11.29000481 7.39488464 11.29000481 7.39488464 11.30964661 8.94348145 C11.31703354 10.04752319 11.32442047 11.15156494 11.33203125 12.2890625 C11.340103 13.42049683 11.34817474 14.55193115 11.35649109 15.71765137 C11.3703574 18.12197324 11.38106809 20.52631501 11.38891602 22.93066406 C11.40604758 26.58958082 11.44990239 30.24757516 11.49414062 33.90625 C11.50427427 36.24218085 11.51278827 38.5781194 11.51953125 40.9140625 C11.53703934 42.0019104 11.55454742 43.0897583 11.57258606 44.21057129 C11.5514959 51.68745044 10.54203062 58.18961155 5.47895813 63.97937012 C0.76761284 68.55810897 -4.86040004 70.98203548 -11.421875 71.2265625 C-18.08166986 70.81798613 -23.95354345 69.21018888 -28.6640625 64.30078125 C-33.37481679 58.34975591 -35.64895401 52.85693417 -34.90625 45.1328125 C-31.65542327 42.96559468 -30.61392847 42.86060232 -26.84375 42.8828125 C-25.96589844 42.87765625 -25.08804688 42.8725 -24.18359375 42.8671875 C-21.90625 43.1328125 -21.90625 43.1328125 -19.90625 45.1328125 C-19.0588687 47.44192655 -18.38203656 49.77755923 -17.6875 52.13671875 C-17.08996009 54.32008651 -17.08996009 54.32008651 -14.90625 55.1328125 C-10.70969911 55.57364242 -10.70969911 55.57364242 -7.09375 53.7578125 C-4.97256179 50.8551339 -4.76830744 48.97199534 -4.71679688 45.42358398 C-4.70007935 44.44594589 -4.68336182 43.4683078 -4.6661377 42.46104431 C-4.65256226 41.40268875 -4.63898682 40.34433319 -4.625 39.25390625 C-4.60659058 38.17150162 -4.58818115 37.08909698 -4.56921387 35.97389221 C-4.49031159 31.32718051 -4.42264688 26.68032005 -4.35400391 22.03344727 C-4.30241962 18.64852402 -4.24511968 15.26373124 -4.1875 11.87890625 C-4.17392456 10.81852646 -4.16034912 9.75814667 -4.1463623 8.66563416 C-4.12964478 7.69114822 -4.11292725 6.71666229 -4.09570312 5.71264648 C-4.07691101 4.41930641 -4.07691101 4.41930641 -4.05773926 3.09983826 C-3.81139676 -0.09881786 -3.2643942 0.1491793 0 0 Z " fill="#013C6A" transform="translate(213.90625,25.8671875)"/>
<path d="M0 0 C1.1859375 0.00257812 2.371875 0.00515625 3.59375 0.0078125 C4.7796875 0.00523438 5.965625 0.00265625 7.1875 0 C10.09375 0.1328125 10.09375 0.1328125 11.09375 1.1328125 C11.18728163 2.82083235 11.21119791 4.51276457 11.20727539 6.20336914 C11.20719986 7.28441422 11.20712433 8.36545929 11.20704651 9.47926331 C11.20188522 10.6552861 11.19672394 11.8313089 11.19140625 13.04296875 C11.1899913 14.24014023 11.18857635 15.43731171 11.18711853 16.67076111 C11.18149979 20.51230316 11.16894411 24.35378793 11.15625 28.1953125 C11.15123741 30.79231687 11.14667409 33.38932215 11.14257812 35.98632812 C11.13152427 42.36850929 11.11476792 48.7506568 11.09375 55.1328125 C11.90118652 55.12757568 12.70862305 55.12233887 13.54052734 55.11694336 C17.18326038 55.09621321 20.82598102 55.08316501 24.46875 55.0703125 C25.73976563 55.06193359 27.01078125 55.05355469 28.3203125 55.04492188 C29.53203125 55.04169922 30.74375 55.03847656 31.9921875 55.03515625 C33.11286621 55.02991943 34.23354492 55.02468262 35.38818359 55.01928711 C38.09375 55.1328125 38.09375 55.1328125 40.09375 56.1328125 C40.09375 60.4228125 40.09375 64.7128125 40.09375 69.1328125 C36.72735724 70.81600888 32.92134311 70.29598098 29.21875 70.30078125 C28.33848145 70.30410965 27.45821289 70.30743805 26.55126953 70.31086731 C24.68848189 70.31593417 22.82568515 70.31827571 20.96289062 70.31811523 C18.10531774 70.32030364 15.24812963 70.33846703 12.390625 70.35742188 C10.58333466 70.3603554 8.77604248 70.36234047 6.96875 70.36328125 C6.11039551 70.37046677 5.25204102 70.37765228 4.36767578 70.38505554 C-1.67742421 70.36163829 -1.67742421 70.36163829 -3.90625 68.1328125 C-4.15348816 65.35545349 -4.15348816 65.35545349 -4.14916992 61.77124023 C-4.15106827 61.11906525 -4.15296661 60.46689026 -4.15492249 59.79495239 C-4.15863279 57.63531544 -4.14792372 55.4760134 -4.13671875 53.31640625 C-4.13552709 51.81950419 -4.13507376 50.32260137 -4.1353302 48.82569885 C-4.13376496 45.68754399 -4.12547151 42.54950314 -4.11206055 39.41137695 C-4.09505597 35.38037519 -4.09124659 31.34949866 -4.09200573 27.31846523 C-4.09173438 24.22763362 -4.08625915 21.13682961 -4.07900429 18.04600716 C-4.07581303 16.55918652 -4.07384915 15.07236274 -4.07311058 13.58553886 C-4.07095265 11.51196793 -4.0622209 9.43853231 -4.05151367 7.36499023 C-4.04770187 6.18299545 -4.04389008 5.00100067 -4.03996277 3.78318787 C-3.8526102 0.06959622 -3.74702282 0.17123491 0 0 Z " fill="#013C6B" transform="translate(311.90625,25.8671875)"/>
<path d="M0 0 C2.14576637 -0.02685938 4.29162645 -0.04633088 6.4375 -0.0625 C7.63246094 -0.07410156 8.82742188 -0.08570312 10.05859375 -0.09765625 C13 0 13 0 14 1 C14.0942174 3.11681317 14.11742761 5.23680758 14.11352539 7.35571289 C14.11367142 8.01910172 14.11381744 8.68249054 14.1139679 9.36598206 C14.11326881 11.56823956 14.10547665 13.77041345 14.09765625 15.97265625 C14.09579206 17.49580336 14.09436816 19.01895107 14.09336853 20.542099 C14.08954346 24.55837651 14.07971328 28.57461808 14.06866455 32.59088135 C14.05845019 36.68623366 14.05387086 40.78159176 14.04882812 44.87695312 C14.038091 52.91798528 14.02101472 60.95898817 14 69 C11.53630468 70.23184766 9.8105499 70.16732342 7.0625 70.1875 C6.18722656 70.20167969 5.31195313 70.21585937 4.41015625 70.23046875 C2 70 2 70 -1 68 C-1.36749268 65.26733398 -1.36749268 65.26733398 -1.35644531 61.74609375 C-1.35944641 60.43133057 -1.36244751 59.11656738 -1.36553955 57.76196289 C-1.35353347 56.32047131 -1.34105047 54.87898363 -1.328125 53.4375 C-1.3250681 51.96541537 -1.32319145 50.49332785 -1.32244873 49.02124023 C-1.31784233 45.93429516 -1.30340415 42.84761048 -1.28125 39.76074219 C-1.25296731 35.79933439 -1.24203887 31.83813185 -1.2375679 27.87663269 C-1.23341518 24.8363641 -1.22359894 21.79613722 -1.21169281 18.75588989 C-1.20598635 17.29501683 -1.20122889 15.83413975 -1.19742584 14.3732605 C-1.19056739 12.3334514 -1.17603827 10.29367241 -1.16113281 8.25390625 C-1.15430481 7.09189697 -1.14747681 5.9298877 -1.14044189 4.73266602 C-1 2 -1 2 0 0 Z " fill="#023D6B" transform="translate(365,26)"/>
<path d="M0 0 C1.32 0 2.64 0 4 0 C4.08114106 1.77007714 4.13925505 3.54122098 4.1875 5.3125 C4.23970703 6.79169922 4.23970703 6.79169922 4.29296875 8.30078125 C4 11 4 11 2.61328125 12.79296875 C1 14 1 14 -1 15 C1.475 15.99 1.475 15.99 4 17 C4.6875 20.3125 4.6875 20.3125 5 24 C3.40279277 26.3212745 2.44169716 26.91814961 -0.33984375 27.43359375 C-1.19707031 27.43488281 -2.05429687 27.43617188 -2.9375 27.4375 C-4.21947266 27.46650391 -4.21947266 27.46650391 -5.52734375 27.49609375 C-8 27 -8 27 -10.3203125 25.5390625 C-12.85379224 21.70938382 -12.30915057 18.39376729 -11.9375 13.9375 C-11.89689453 13.12216797 -11.85628906 12.30683594 -11.81445312 11.46679688 C-11.40871255 5.51756452 -11.40871255 5.51756452 -9.65063477 3.29125977 C-7.2369561 1.40308547 -5.00530508 1.25577065 -2 1 C-1.34 1.33 -0.68 1.66 0 2 C0 1.34 0 0.68 0 0 Z M-5 5 C-5.33 6.65 -5.66 8.3 -6 10 C-4.35 10 -2.7 10 -1 10 C-1 8.68 -1 7.36 -1 6 C-2.32 5.67 -3.64 5.34 -5 5 Z M-6 19 C-6.33 20.32 -6.66 21.64 -7 23 C-4.69 23 -2.38 23 0 23 C0 22.01 0 21.02 0 20 C-1.06645115 18.70366379 -1.06645115 18.70366379 -3.5625 18.9375 C-4.366875 18.958125 -5.17125 18.97875 -6 19 Z " fill="#013B69" transform="translate(349,119)"/>
<path d="M0 0 C3.69682664 0.70635288 3.69682664 0.70635288 6.5625 -0.125 C8.875 -0.5 8.875 -0.5 11.5 0.46484375 C13.875 2.5 13.875 2.5 14.36328125 6.29296875 C14.33012197 7.75860885 14.27058979 9.22384139 14.1875 10.6875 C14.16494141 11.43708984 14.14238281 12.18667969 14.11914062 12.95898438 C14.06029157 14.8068447 13.97060938 16.65367667 13.875 18.5 C12.555 18.5 11.235 18.5 9.875 18.5 C9.545 13.88 9.215 9.26 8.875 4.5 C7.555 4.83 6.235 5.16 4.875 5.5 C4.545 9.46 4.215 13.42 3.875 17.5 C2.225 17.83 0.575 18.16 -1.125 18.5 C-1.455 14.21 -1.785 9.92 -2.125 5.5 C-3.445 5.17 -4.765 4.84 -6.125 4.5 C-6.125 8.79 -6.125 13.08 -6.125 17.5 C-7.775 17.83 -9.425 18.16 -11.125 18.5 C-11.125 12.56 -11.125 6.62 -11.125 0.5 C-3.33158135 -0.61334552 -3.33158135 -0.61334552 0 0 Z " fill="#013C6A" transform="translate(498.125,120.5)"/>
<path d="M0 0 C1.32 0 2.64 0 4 0 C4 2.31 4 4.62 4 7 C4.9075 6.79375 5.815 6.5875 6.75 6.375 C10.12036846 5.98611133 11.28161375 6.08706153 14 8 C15.53266582 11.06533164 15.10276471 14.26754272 15.0625 17.625 C15.05798828 18.33140625 15.05347656 19.0378125 15.04882812 19.765625 C15.03703875 21.51045275 15.01910324 23.255237 15 25 C13.68 25 12.36 25 11 25 C9.71553081 22.43106162 9.67022856 20.23423663 9.4375 17.375 C9.35371094 16.37210938 9.26992188 15.36921875 9.18359375 14.3359375 C9.12300781 13.56507812 9.06242187 12.79421875 9 12 C7.68 11.67 6.36 11.34 5 11 C4.67 15.62 4.34 20.24 4 25 C2.68 25 1.36 25 0 25 C-1.24497833 22.51004335 -1.12934372 20.81005089 -1.1328125 18.02734375 C-1.13410156 17.04572266 -1.13539063 16.06410156 -1.13671875 15.05273438 C-1.13285156 14.02470703 -1.12898438 12.99667969 -1.125 11.9375 C-1.12886719 10.90560547 -1.13273437 9.87371094 -1.13671875 8.81054688 C-1.13542969 7.83021484 -1.13414062 6.84988281 -1.1328125 5.83984375 C-1.13112061 4.48427368 -1.13112061 4.48427368 -1.12939453 3.10131836 C-1 1 -1 1 0 0 Z " fill="#01345C" transform="translate(275,114)"/>
<path d="M0 0 C2.11583856 3.05546015 2.21542489 5.42214997 1.875 9.0625 C1.81054688 9.91972656 1.74609375 10.77695313 1.6796875 11.66015625 C0.80700081 14.66440526 -0.32334551 15.4627654 -3 17 C-6.99022009 17.6791864 -8.49714787 17.33887861 -11.875 15.0625 C-14.37981739 11.45261611 -14.67291229 9.38919958 -14.4296875 5.08984375 C-13.8027204 2.04050378 -12.5321477 0.73632985 -10 -1 C-5.98367013 -2.33877662 -3.90367509 -1.49049413 0 0 Z M-8 3 C-8.33 3.99 -8.66 4.98 -9 6 C-7.02 6 -5.04 6 -3 6 C-3.33 5.01 -3.66 4.02 -4 3 C-5.32 3 -6.64 3 -8 3 Z M-9 9 C-8.67 10.32 -8.34 11.64 -8 13 C-4.64404172 12.40072174 -2.62198774 11.15377564 0 9 C-2.97 9 -5.94 9 -9 9 Z " fill="#013C6A" transform="translate(408,122)"/>
<path d="M0 0 C2.80478513 2.80478513 2.96108361 4.88543472 3.09765625 8.796875 C3.08605469 9.77140625 3.07445312 10.7459375 3.0625 11.75 C3.05347656 12.73484375 3.04445313 13.7196875 3.03515625 14.734375 C3.02355469 15.48203125 3.01195312 16.2296875 3 17 C1.35 17.33 -0.3 17.66 -2 18 C-2.33 13.38 -2.66 8.76 -3 4 C-4.32 4.33 -5.64 4.66 -7 5 C-7.33 8.96 -7.66 12.92 -8 17 C-9.65 17.33 -11.3 17.66 -13 18 C-13 12.06 -13 6.12 -13 0 C-4.65833333 -1.19166667 -4.65833333 -1.19166667 0 0 Z " fill="#013B6A" transform="translate(330,121)"/>
<path d="M0 0 C1.65 0 3.3 0 5 0 C5.33 4.29 5.66 8.58 6 13 C6.99 13 7.98 13 9 13 C9.33 8.71 9.66 4.42 10 0 C11.65 0 13.3 0 15 0 C15 5.94 15 11.88 15 18 C13.081875 18.0825 11.16375 18.165 9.1875 18.25 C7.56908203 18.31960937 7.56908203 18.31960937 5.91796875 18.390625 C3 18 3 18 1.125 16.4375 C-0.41583701 13.09901982 -0.28915424 10.40955276 -0.1875 6.75 C-0.16042969 5.48671875 -0.13335937 4.2234375 -0.10546875 2.921875 C-0.07066406 1.95765625 -0.03585937 0.9934375 0 0 Z " fill="#013C6A" transform="translate(466,121)"/>
<path d="M0 0 C2.475 0.495 2.475 0.495 5 1 C5.33 4.96 5.66 8.92 6 13 C6.99 13 7.98 13 9 13 C9.33 8.71 9.66 4.42 10 0 C11.65 0 13.3 0 15 0 C15 5.94 15 11.88 15 18 C13.081875 18.0825 11.16375 18.165 9.1875 18.25 C7.56908203 18.31960937 7.56908203 18.31960937 5.91796875 18.390625 C3 18 3 18 1.125 16.4375 C-0.41583701 13.09901982 -0.28915424 10.40955276 -0.1875 6.75 C-0.16042969 5.48671875 -0.13335937 4.2234375 -0.10546875 2.921875 C-0.07066406 1.95765625 -0.03585937 0.9934375 0 0 Z " fill="#013C6A" transform="translate(296,121)"/>
<path d="M0 0 C2 3 2 3 2 6 C-0.76276177 5.47731534 -3.3260876 4.89130413 -6 4 C-6.33 4.66 -6.66 5.32 -7 6 C-6.071875 6.12375 -5.14375 6.2475 -4.1875 6.375 C-1 7 -1 7 2 9 C2.39191116 12.06997072 2.47271848 14.11365285 1 16.875 C-2.21113523 18.68126357 -5.40930695 18.55356518 -9 18 C-11 16.75 -11 16.75 -12 15 C-12 13.68 -12 12.36 -12 11 C-10.68 11 -9.36 11 -8 11 C-7.67 11.66 -7.34 12.32 -7 13 C-5.68 12.67 -4.36 12.34 -3 12 C-3.56589844 11.85304687 -4.13179688 11.70609375 -4.71484375 11.5546875 C-6.96892654 10.86538977 -8.94870197 10.16600098 -11 9 C-12.125 6 -12.125 6 -12 3 C-10 0 -10 0 -8.25 -0.75 C-5.27282724 -1.08079697 -2.89529716 -0.75529491 0 0 Z " fill="#013B6A" transform="translate(370,121)"/>
<path d="M0 0 C3.30976475 0.09645945 3.97791415 0.31911383 6.6875 2.5 C8.57110971 6.34911549 8.332644 8.36170151 7.125 12.4375 C5.5625 14.4375 5.5625 14.4375 3.125 15.4375 C0.26637749 15.46580319 -2.02955617 15.03412532 -4.875 14.4375 C-7.30020546 12.01229454 -7.56064441 10.81682259 -7.875 7.4375 C-6.38178031 2.49838871 -5.34670253 0.60365996 0 0 Z " fill="#013B69" transform="translate(255.875,5.5625)"/>
<path d="M0 0 C2.45391569 3.68087353 2.22802759 6.44355588 2.125 10.6875 C2.11597656 11.38939453 2.10695313 12.09128906 2.09765625 12.81445312 C2.07413704 14.54311525 2.03826713 16.27160145 2 18 C0.68 18 -0.64 18 -2 18 C-2.33 13.38 -2.66 8.76 -3 4 C-4.32 4.33 -5.64 4.66 -7 5 C-7.33 8.96 -7.66 12.92 -8 17 C-9.65 17.33 -11.3 17.66 -13 18 C-13 12.06 -13 6.12 -13 0 C-4.4015748 -1.22834646 -4.4015748 -1.22834646 0 0 Z " fill="#013C6A" transform="translate(428,121)"/>
<path d="M0 0 C2.69755601 4.04633401 2.53201555 7.25476456 2 12 C0.9375 14.5 0.9375 14.5 -1 16 C-5.08035596 17.20899436 -7.06467129 17.48799759 -10.875 15.5 C-13.62245131 12.26770434 -13.92613748 10.21016336 -14 6 C-13.23484191 2.63330441 -12.39741378 1.35199507 -9.8125 -0.9375 C-5.90077657 -2.41526218 -3.79533233 -1.57542097 0 0 Z M-8 3 C-9.38125018 5.76250036 -9.19079306 7.94731099 -9 11 C-8.34 11.66 -7.68 12.32 -7 13 C-4.89179203 12.6814823 -4.89179203 12.6814823 -3 12 C-3 9.36 -3 6.72 -3 4 C-4.65 3.67 -6.3 3.34 -8 3 Z " fill="#013C6B" transform="translate(216,122)"/>
<path d="M0 0 C4.23998029 0.08180026 4.23998029 0.08180026 6.625 2.25 C7.5625 4.375 7.5625 4.375 7.5625 6.375 C5.9125 6.375 4.2625 6.375 2.5625 6.375 C2.5625 5.715 2.5625 5.055 2.5625 4.375 C1.2425 4.705 -0.0775 5.035 -1.4375 5.375 C-0.303125 5.849375 0.83125 6.32375 2 6.8125 C5.5625 8.375 5.5625 8.375 6.5625 9.375 C6.75 12.8125 6.75 12.8125 6.5625 16.375 C4.15903621 18.77846379 3.42349805 18.69583747 0.125 18.75 C-4.11498029 18.66819974 -4.11498029 18.66819974 -6.5 16.5 C-7.4375 14.375 -7.4375 14.375 -7.4375 12.375 C-3.58104879 12.15463136 -0.94526784 12.77144899 2.5625 14.375 C0.94621879 11.14243757 -2.20743715 10.70163296 -5.4375 9.375 C-6.4375 8.375 -6.4375 8.375 -6.625 5.4375 C-6.32816899 0.58926017 -4.42473406 0.07265573 0 0 Z " fill="#013C6A" transform="translate(243.4375,120.625)"/>
<path d="M0 0 C2.4375 1.5625 2.4375 1.5625 4 4 C4.5625 7.5 4.5625 7.5 4 11 C1.9375 13.5 1.9375 13.5 -1 15 C-4.80284671 15 -7.01930006 14.7968187 -10 12.375 C-11.45635054 8.91616747 -10.91305869 6.58701629 -10 3 C-7.67133148 -1.01048467 -4.26353269 -0.52359173 0 0 Z " fill="#013D6A" transform="translate(280,6)"/>
<path d="M0 0 C4.95 0 9.9 0 15 0 C15 1.32 15 2.64 15 4 C11.37 4 7.74 4 4 4 C4 6.31 4 8.62 4 11 C6.97 11 9.94 11 13 11 C13 12.32 13 13.64 13 15 C10.03 15 7.06 15 4 15 C4 18.3 4 21.6 4 25 C2.68 25 1.36 25 0 25 C0 16.75 0 8.5 0 0 Z " fill="#013D6B" transform="translate(185,114)"/>
<path d="M0 0 C4.62 0 9.24 0 14 0 C14 5.34203818 13.89703018 5.73348606 10.5 9.3125 C9.8503125 10.00988281 9.200625 10.70726562 8.53125 11.42578125 C8.0259375 11.94527344 7.520625 12.46476563 7 13 C9.31 13.33 11.62 13.66 14 14 C14 15.32 14 16.64 14 18 C9.71 18 5.42 18 1 18 C0.67 16.68 0.34 15.36 0 14 C1.43359375 11.640625 1.43359375 11.640625 3.4375 9.25 C4.09621094 8.45078125 4.75492187 7.6515625 5.43359375 6.828125 C5.95050781 6.22484375 6.46742188 5.6215625 7 5 C4.69 4.34 2.38 3.68 0 3 C0 2.01 0 1.02 0 0 Z " fill="#013B6A" transform="translate(376,121)"/>
<path d="M0 0 C2 1.8125 2 1.8125 3 4 C3 4.99 3 5.98 3 7 C-0.02419525 6.41196203 -3.01758453 5.77321882 -6 5 C-7.01540112 9.10223585 -7.01540112 9.10223585 -6 13 C-5.01 13 -4.02 13 -3 13 C-2.67 12.34 -2.34 11.68 -2 11 C-0.35 11 1.3 11 3 11 C2.6875 13.375 2.6875 13.375 2 16 C-1.7205836 18.48038907 -3.59796571 18.46337203 -8 18 C-10.4375 16.625 -10.4375 16.625 -12 14 C-12.74135651 9.3990039 -12.84195873 5.47342778 -10.5 1.375 C-6.69605923 -0.71716742 -4.32255167 -0.54889545 0 0 Z " fill="#013B69" transform="translate(267,121)"/>
<path d="M0 0 C1.32 0.33 2.64 0.66 4 1 C4 2.32 4 3.64 4 5 C5.32 5 6.64 5 8 5 C8 6.32 8 7.64 8 9 C6.68 9 5.36 9 4 9 C4 11.97 4 14.94 4 18 C5.32 18.33 6.64 18.66 8 19 C8 20.32 8 21.64 8 23 C1.25 22.25 1.25 22.25 -1 20 C-1.1953125 17.3984375 -1.1953125 17.3984375 -1.125 14.375 C-1.10695313 13.37210938 -1.08890625 12.36921875 -1.0703125 11.3359375 C-1.04710937 10.56507812 -1.02390625 9.79421875 -1 9 C-1.99 9 -2.98 9 -4 9 C-4 7.68 -4 6.36 -4 5 C-3.34 4.67 -2.68 4.34 -2 4 C-0.86649466 1.98330173 -0.86649466 1.98330173 0 0 Z " fill="#013C6A" transform="translate(438,116)"/>
<path d="M0 0 C3.3 0 6.6 0 10 0 C10 1.32 10 2.64 10 4 C9.03320312 4.32097656 9.03320312 4.32097656 8.046875 4.6484375 C5.72160885 5.8473523 5.72160885 5.8473523 5.390625 8.6015625 C5.34421875 9.59929687 5.2978125 10.59703125 5.25 11.625 C5.19328125 12.62789062 5.1365625 13.63078125 5.078125 14.6640625 C5.05234375 15.43492187 5.0265625 16.20578125 5 17 C3.35 17.33 1.7 17.66 0 18 C0 12.06 0 6.12 0 0 Z " fill="#023C6B" transform="translate(451,121)"/>
<path d="M0 0 C3.3 0 6.6 0 10 0 C10 1.32 10 2.64 10 4 C9.360625 4.28875 8.72125 4.5775 8.0625 4.875 C5.84793921 5.82823451 5.84793921 5.82823451 5 8 C4.77377919 9.70363822 4.59111527 11.41328701 4.4375 13.125 C4.35371094 14.03507813 4.26992187 14.94515625 4.18359375 15.8828125 C4.12300781 16.58148438 4.06242188 17.28015625 4 18 C2.68 18 1.36 18 0 18 C0 12.06 0 6.12 0 0 Z " fill="#023B6A" transform="translate(223,121)"/>
</svg>
